<svg xmlns="http://www.w3.org/2000/svg" width="136.687" height="37.462" viewBox="0 0 136.687 37.462">
  <g id="Logo_Evidenze" data-name="Logo Evidenze" transform="translate(-32.473 -32.602)">
    <path id="Trazado_1278" data-name="Trazado 1278" d="M67.668,38.656H72.31L66.34,55.19H61.783l-5.93-16.534h4.854l3.442,12.2Z" fill="#ffffff"/>
    <rect id="Rectángulo_252" data-name="Rectángulo 252" width="4.385" height="16.534" transform="translate(74.821 38.656)" fill="#ffffff"/>
    <path id="Trazado_1279" data-name="Trazado 1279" d="M137.57,42.175V38.656h13.075V42.25l-8.111,9.391h8.4V55.19H136.994V51.823l8.195-9.648Z" fill="#ffffff"/>
    <path id="Trazado_1280" data-name="Trazado 1280" d="M36.913,41.8H51.535l-4.367,4.114H36.913Z" fill="#ffffff"/>
    <path id="Trazado_1281" data-name="Trazado 1281" d="M53.922,32.737l-21.448.008,4.467,4.176,16.965-.008Z" fill="#ffffff"/>
    <path id="Trazado_1282" data-name="Trazado 1282" d="M36.929,50.991l-4.456,4.2L54.8,55.153V50.991Z" fill="#ffffff"/>
    <path id="Trazado_1283" data-name="Trazado 1283" d="M79.2,36.715,74.83,32.6H79.2Z" fill="#ffffff"/>
    <path id="Trazado_1284" data-name="Trazado 1284" d="M105.722,48.135h11.222a20.906,20.906,0,0,0-.14-3.281,8.109,8.109,0,0,0-1.319-3.418,6.739,6.739,0,0,0-2.856-2.446,9.431,9.431,0,0,0-3.89-.775,7.973,7.973,0,0,0-5.911,2.294Q100.549,42.8,100.55,47.1q0,4.585,2.523,6.621A9.019,9.019,0,0,0,108.9,55.75a8.035,8.035,0,0,0,6.219-2.411,5.4,5.4,0,0,0,1.6-2.989h-4.415a3.618,3.618,0,0,1-.887,1.139,3.672,3.672,0,0,1-2.4.758,4.372,4.372,0,0,1-2.383-.623c-1.087-.667-1.557-1.829-1.624-3.489,0,0-.052-2.177,0-2.851a4.19,4.19,0,0,1,1.153-2.558,3.424,3.424,0,0,1,2.581-.945,3.784,3.784,0,0,1,2.562.892,3.6,3.6,0,0,1,1.153,2.611H108.75Z" fill="#ffffff"/>
    <path id="Trazado_1285" data-name="Trazado 1285" d="M157.932,48.135h11.222a20.786,20.786,0,0,0-.14-3.281,8.1,8.1,0,0,0-1.318-3.418,6.747,6.747,0,0,0-2.857-2.446,9.429,9.429,0,0,0-3.889-.775,7.975,7.975,0,0,0-5.912,2.294q-2.278,2.293-2.277,6.588,0,4.585,2.522,6.621a9.023,9.023,0,0,0,5.825,2.032,8.033,8.033,0,0,0,6.219-2.411,5.4,5.4,0,0,0,1.6-2.989h-4.415a3.618,3.618,0,0,1-.887,1.139,3.67,3.67,0,0,1-2.4.758,4.369,4.369,0,0,1-2.382-.623c-1.088-.667-1.557-1.829-1.625-3.489,0,0-.051-2.177,0-2.851a4.2,4.2,0,0,1,1.153-2.558,3.424,3.424,0,0,1,2.581-.945,3.78,3.78,0,0,1,2.562.892,3.594,3.594,0,0,1,1.153,2.611h-3.708Z" fill="#ffffff"/>
    <g id="Grupo_266" data-name="Grupo 266">
      <path id="Trazado_1286" data-name="Trazado 1286" d="M32.94,61.785h.894v2.684h.949l1.61-2.684h.985l-1.853,3.027v.019L37.5,68.166H36.483l-1.7-2.929h-.949v2.929H32.94Z" fill="#ffffff"/>
      <path id="Trazado_1287" data-name="Trazado 1287" d="M41.146,63.592h.849V64.2a3.2,3.2,0,0,1-.018.334h.018a1.864,1.864,0,0,1,1.718-1.048c1.076,0,1.573.587,1.573,1.753v2.929h-.877v-2.73c0-.642-.136-1.148-.868-1.148A1.5,1.5,0,0,0,42.1,65.409a2.177,2.177,0,0,0-.072.615v2.142h-.877Z" fill="#ffffff"/>
      <path id="Trazado_1288" data-name="Trazado 1288" d="M51.487,63.484a2.4,2.4,0,1,1-2.468,2.386A2.385,2.385,0,0,1,51.487,63.484Zm0,4.031a1.637,1.637,0,1,0-1.573-1.645A1.579,1.579,0,0,0,51.487,67.515Z" fill="#ffffff"/>
      <path id="Trazado_1289" data-name="Trazado 1289" d="M57.217,63.592h.931L59.1,66.8c.072.235.109.488.117.488h.018a4.778,4.778,0,0,1,.119-.488l.994-3.2h.8l.985,3.2c.073.235.127.488.127.488h.017a3.79,3.79,0,0,1,.109-.488l.959-3.209h.921l-1.473,4.574h-.967l-.95-2.938c-.071-.235-.125-.5-.125-.5h-.019s-.054.262-.126.5l-.941,2.938H58.69Z" fill="#ffffff"/>
      <path id="Trazado_1290" data-name="Trazado 1290" d="M67.811,61.785h.877v4.98c0,.551.217.651.488.651a1.389,1.389,0,0,0,.153-.009v.777a2.459,2.459,0,0,1-.289.018c-.5,0-1.229-.136-1.229-1.283Z" fill="#ffffff"/>
      <path id="Trazado_1291" data-name="Trazado 1291" d="M74.987,63.484a1.946,1.946,0,0,1,1.979,2.142c0,.118-.027.38-.027.38H73.6a1.494,1.494,0,0,0,1.573,1.509,2.179,2.179,0,0,0,1.355-.533l.363.642a2.726,2.726,0,0,1-1.772.651,2.33,2.33,0,0,1-2.423-2.4A2.242,2.242,0,0,1,74.987,63.484Zm1.085,1.862a1.08,1.08,0,0,0-1.1-1.166,1.31,1.31,0,0,0-1.337,1.166Z" fill="#ffffff"/>
      <path id="Trazado_1292" data-name="Trazado 1292" d="M82.562,63.484a1.523,1.523,0,0,1,1.409.723h.018a2.614,2.614,0,0,1-.018-.308V61.785h.877v6.381h-.831v-.434c0-.18.008-.307.008-.307h-.018a1.6,1.6,0,0,1-1.5.85c-1.239,0-2.016-.977-2.016-2.4A2.132,2.132,0,0,1,82.562,63.484Zm.117,4.031c.677,0,1.32-.479,1.32-1.645,0-.814-.425-1.627-1.294-1.627-.722,0-1.319.6-1.319,1.636C81.386,66.873,81.919,67.515,82.679,67.515Z" fill="#ffffff"/>
      <path id="Trazado_1293" data-name="Trazado 1293" d="M90.642,69.305c.795,0,1.445-.352,1.445-1.284v-.334c0-.145.01-.289.01-.289h-.018a1.452,1.452,0,0,1-1.356.714A2.1,2.1,0,0,1,88.68,65.77a2.031,2.031,0,0,1,2-2.286,1.527,1.527,0,0,1,1.437.677h.018a1.112,1.112,0,0,1-.009-.144v-.425h.84v4.385a2.054,2.054,0,0,1-2.3,2.087,3.563,3.563,0,0,1-1.564-.38L89.385,69A2.94,2.94,0,0,0,90.642,69.305Zm1.463-3.525c0-1.193-.578-1.537-1.292-1.537-.8,0-1.247.579-1.247,1.509,0,.949.506,1.6,1.328,1.6C91.527,67.352,92.105,66.973,92.105,65.78Z" fill="#ffffff"/>
      <path id="Trazado_1294" data-name="Trazado 1294" d="M99.066,63.484a1.946,1.946,0,0,1,1.979,2.142c0,.118-.026.38-.026.38H97.683a1.5,1.5,0,0,0,1.573,1.509,2.18,2.18,0,0,0,1.356-.533l.362.642a2.726,2.726,0,0,1-1.772.651,2.33,2.33,0,0,1-2.423-2.4A2.242,2.242,0,0,1,99.066,63.484Zm1.085,1.862a1.079,1.079,0,0,0-1.1-1.166,1.311,1.311,0,0,0-1.338,1.166Z" fill="#ffffff"/>
      <path id="Trazado_1295" data-name="Trazado 1295" d="M109.938,61.785h.887v.894h-.887Zm.01,1.807h.877v4.574h-.877Z" fill="#ffffff"/>
      <path id="Trazado_1296" data-name="Trazado 1296" d="M114.954,63.592h.849V64.2a3.2,3.2,0,0,1-.018.334h.018a1.866,1.866,0,0,1,1.718-1.048c1.076,0,1.573.587,1.573,1.753v2.929h-.876v-2.73c0-.642-.137-1.148-.869-1.148a1.5,1.5,0,0,0-1.445,1.121,2.14,2.14,0,0,0-.073.615v2.142h-.877Z" fill="#ffffff"/>
      <path id="Trazado_1297" data-name="Trazado 1297" d="M128.422,61.785h.894v2.8h3.309v-2.8h.9v6.381h-.9v-2.8h-3.309v2.8h-.894Z" fill="#ffffff"/>
      <path id="Trazado_1298" data-name="Trazado 1298" d="M139.8,63.484a1.946,1.946,0,0,1,1.979,2.142c0,.118-.027.38-.027.38h-3.335a1.494,1.494,0,0,0,1.573,1.509,2.18,2.18,0,0,0,1.356-.533l.362.642a2.726,2.726,0,0,1-1.772.651,2.33,2.33,0,0,1-2.423-2.4A2.242,2.242,0,0,1,139.8,63.484Zm1.085,1.862a1.079,1.079,0,0,0-1.1-1.166,1.31,1.31,0,0,0-1.338,1.166Z" fill="#ffffff"/>
      <path id="Trazado_1299" data-name="Trazado 1299" d="M147.99,65.31h.2v-.082a.888.888,0,0,0-1-1,2.322,2.322,0,0,0-1.275.443l-.361-.642a2.865,2.865,0,0,1,1.707-.542,1.625,1.625,0,0,1,1.808,1.79v2.892h-.813v-.434a3.279,3.279,0,0,1,.019-.362h-.019a1.581,1.581,0,0,1-1.464.9,1.431,1.431,0,0,1-1.555-1.393C145.233,65.373,147.222,65.31,147.99,65.31Zm-1.013,2.26a1.387,1.387,0,0,0,1.221-1.456v-.145h-.226c-.66,0-1.853.045-1.853.869A.767.767,0,0,0,146.977,67.57Z" fill="#ffffff"/>
      <path id="Trazado_1300" data-name="Trazado 1300" d="M153.079,61.785h.877v4.98c0,.551.217.651.488.651a1.389,1.389,0,0,0,.153-.009v.777a2.458,2.458,0,0,1-.289.018c-.5,0-1.229-.136-1.229-1.283Z" fill="#ffffff"/>
      <path id="Trazado_1301" data-name="Trazado 1301" d="M158.474,64.361h-.6v-.706h.624v-1.32h.85v1.32h1.1v.706h-1.1v2.033a.908.908,0,0,0,.976,1.031,1.056,1.056,0,0,0,.208-.018v.777a2.4,2.4,0,0,1-.307.018,1.577,1.577,0,0,1-1.754-1.708Z" fill="#ffffff"/>
      <path id="Trazado_1302" data-name="Trazado 1302" d="M164.277,61.785h.877v2.34c0,.218-.018.381-.018.381h.018a1.843,1.843,0,0,1,1.69-1.022c1.076,0,1.573.587,1.573,1.753v2.929h-.876v-2.73c0-.642-.137-1.148-.869-1.148a1.512,1.512,0,0,0-1.445,1.13,2.112,2.112,0,0,0-.073.606v2.142h-.877Z" fill="#ffffff"/>
    </g>
    <path id="Trazado_1303" data-name="Trazado 1303" d="M93.549,32.862V40.75a5.23,5.23,0,0,0-1.9-1.828,5.311,5.311,0,0,0-2.67-.66,6.33,6.33,0,0,0-5.208,2.427,10.342,10.342,0,0,0-1.952,6.658A9,9,0,0,0,83.8,53.363a6.144,6.144,0,0,0,4.874,2.343,6.34,6.34,0,0,0,2.5-.459l2.563-2.415V55.19h4.2V32.862Zm.121,14.882v4.313H90.009c-.11,0-.344-.018-.344-.018a2.991,2.991,0,0,1-2.48-1.346,6.586,6.586,0,0,1-.9-3.664,6.62,6.62,0,0,1,.887-3.556,3.032,3.032,0,0,1,2.782-1.435,3.293,3.293,0,0,1,2.184.789q1.533,1.3,1.533,4.338C93.67,47.367,93.683,47.552,93.67,47.744Z" fill="#ffffff"/>
    <path id="Trazado_1304" data-name="Trazado 1304" d="M132.868,39.6a6.343,6.343,0,0,0-4.177-1.342,6,6,0,0,0-2.442.478l-2.484,2.34-.012.017v-.006l0,0V38.687h-4.185v16.5h4.319V41.858h3.6a2.386,2.386,0,0,1,2.234,1.272,4.623,4.623,0,0,1,.348,2V55.19h4.429V44.056Q134.492,40.945,132.868,39.6Z" fill="#ffffff"/>
  </g>
</svg>
